<?xml version="1.0" encoding="UTF-8"?>
<svg xmlns="http://www.w3.org/2000/svg" version="1.1" viewBox="0 0 5682 563">
  <defs>
    <style>
      .cls-1 {
        fill: #fff;
      }
    </style>
  </defs>
  <!-- Generator: Adobe Illustrator 28.6.0, SVG Export Plug-In . SVG Version: 1.2.0 Build 709)  -->
  <g>
    <g id="Layer_1">
      <g>
        <g>
          <g>
            <path class="cls-1" d="M33.84,161.14c8.98,0,17.69,4.45,26.15,13.34,3.08,1.84,6.15,2.74,9.23,2.74h1.15c2.81,0,8.84-2.22,18.06-6.67,16.92-6.28,33.58-9.42,49.98-9.42,32.3,0,62.29,11.38,89.97,34.14,4.61,4.71,6.92,7.2,6.92,7.46-25.12,26.17-38.19,39.24-39.22,39.24-2.82,1.84-5.64,2.75-8.46,2.75-4.11,0-9.87-2.61-17.3-7.85-10.25-5.23-21.28-7.85-33.06-7.85-19.48,0-36.79,7.98-51.9,23.95-12.56,14.39-18.84,31.12-18.84,50.21v220.94c0,14.65-3.98,24.88-11.92,30.61-6.15,5.5-12.69,8.23-19.61,8.23h-3.46c-3.59,0-8.07-1.17-13.45-3.53-7.18-3.95-12.56-10.33-16.15-19.24C.63,536.8,0,531.43,0,524.09V199.97C0,186.11,3.72,176.3,11.15,170.55c6.42-6.27,13.98-9.41,22.69-9.41Z"/>
            <path class="cls-1" d="M436.13,160.75c54.6,0,102.52,21.07,143.79,63.18,14.86,16.75,22.3,29.3,22.3,37.67,0,1.85.13,3.25.38,4.31,0,8.37-3.72,16.5-11.15,24.34-4.11,3.39-67.66,49.72-190.7,138.92,0,.25-10.38,7.98-31.15,23.15-3.08,3.65-4.62,7.32-4.62,11v2.34c0,4.96,2.69,9.29,8.07,12.94,20.76,10.72,40.37,16.1,58.83,16.1h7.69c29.48,0,57.41-11.23,83.82-33.72,14.36-14.88,22.81-25.66,25.37-32.18,4.36-7.06,8.58-16.9,12.69-29.45,2.56-12.79,6.15-21.7,10.76-26.66,7.69-7.08,15.5-10.62,23.46-10.62,15.38,0,26.02,7.45,31.91,22.38,1.28,3.13,1.92,6.67,1.92,10.61v1.15c-.26,10.24-5,26.85-14.23,49.87-5.38,12.55-14.23,26.95-26.53,43.17-12.82,14.88-24.1,25.89-33.84,32.96-16.67,12.3-31.4,20.76-44.21,25.49-24.61,10.22-48.2,15.29-70.75,15.29h-6.15c-39.73,0-77.93-12.96-114.57-38.85-17.68-13.87-32.17-28.91-43.45-45.14-8.45-12.78-15.12-24.55-19.99-35.33-11.29-28.52-16.92-55.44-16.92-80.84,0-48.13,15.63-91.96,46.9-131.47,14.61-15.69,25.24-25.76,31.91-30.21,36.42-26.95,75.89-40.41,118.44-40.41ZM305.79,361.25c0,18.31,2.18,29.18,6.54,32.57,3.32,3.13,7.43,4.73,12.3,4.73,3.85,0,11.01-4.45,21.54-13.35,1.28-.53,52.92-37.92,154.95-112.24,3.85-3.64,5.76-7.84,5.76-12.55v-2.35c0-4.71-2.56-8.89-7.69-12.55-20.76-10.98-40.37-16.49-58.83-16.49h-7.69c-29.99,0-58.7,11.92-86.13,35.72-27.16,28.24-40.75,60.44-40.75,96.5Z"/>
            <path class="cls-1" d="M675.79,160.75h1.15c11.28,0,20.24,5.88,26.91,17.66,67.15,157.25,102.01,238.72,104.58,244.49,3.33,4.43,7.56,6.67,12.69,6.67,7.94,0,13.97-6.52,18.07-19.61l100.35-235.07c7.17-9.42,15.5-14.13,24.99-14.13h1.54c10.25,0,18.71,4.98,25.37,14.91,3.08,5.23,4.61,10.46,4.61,15.69v1.17c0,6.02-4.49,18.44-13.45,37.28-.77,2.1-43.97,103.74-129.58,304.91-6.67,18.85-17.56,28.24-32.68,28.24-8.2,0-15.63-3.53-22.3-10.61-2.82-2.08-9.62-16.59-20.38-43.56-1.29-2.63-44.47-104.11-129.57-304.54-1.54-4.19-2.3-8.1-2.3-11.77v-1.17c0-11.51,5.76-20.66,17.3-27.47,4.36-2.06,8.58-3.1,12.69-3.1Z"/>
            <path class="cls-1" d="M1568.27.24c12.81,0,22.42,7.07,28.84,21.19,1.02,4.45,1.54,9.68,1.54,15.69v488.96c0,17.28-6.02,28.66-18.06,34.12-2.57,1.34-6.68,2.24-12.31,2.74-12.82,0-22.56-7.06-29.22-21.2-1.03-4.18-1.54-9.42-1.54-15.68V37.13c0-17.27,6.16-28.51,18.45-33.75,2.31-1.58,6.41-2.62,12.3-3.14Z"/>
            <path class="cls-1" d="M1680.67,161.52c8.72,0,16.79,3.8,24.23,11.38,5.89,6.02,8.84,15.05,8.84,27.08v176.2c0,25.87,3.33,44.87,10,56.89,2.56,7.59,9.62,18.06,21.15,31.4,7.69,6.81,11.66,10.23,11.92,10.23,18.97,13.32,38.45,19.99,58.44,19.99h5.76c22.3,0,43.58-8.11,63.82-24.34,12.05-11.24,20.12-21.32,24.23-30.23,5.12-8.35,9.1-20.14,11.92-35.32,1.02-5.74,1.54-15.29,1.54-28.66v-181.26c0-12.81,6.54-23.01,19.61-30.6,5.64-1.83,10.12-2.74,13.45-2.74,10.25,0,19.09,4.71,26.53,14.13,4.61,5.75,6.92,14.26,6.92,25.51v322.18c0,18.31-6.8,30.62-20.38,36.9-5.64,1.83-10,2.73-13.07,2.73-12.82,0-23.46-7.06-31.91-21.2-3.59-3.13-7.56-4.71-11.92-4.71-2.82,0-11.29,3.66-25.37,10.98-11.79,6.03-27.05,10.35-45.76,12.96-6.92,1.04-13.6,1.71-19.99,1.96-48.45,0-90.36-17.78-125.72-53.37-16.15-18.05-27.82-36.51-34.99-55.33-8.45-19.36-12.69-44.99-12.69-76.91v-176.2c0-15.69,4.48-26.56,13.45-32.57,5.9-4.71,12.57-7.08,20.01-7.08Z"/>
            <path class="cls-1" d="M2070.27.24c12.81,0,22.94,6.94,30.37,20.79,1.54,5.49,2.3,10.34,2.3,14.52v105.56c0,9.95,3.33,16.1,10,18.44,2.31.78,4.74,1.17,7.31,1.17h114.57c.51.26.77.65.77,1.18v47.48c0,9.16-3.46,15.17-10.38,18.05-2.31,1.04-4.49,1.57-6.54,1.57h-76.13c-15.64,0-26.15,4.19-31.53,12.55-5.38,4.98-8.07,14.26-8.07,27.86v184.45c0,16.22,3.85,26.96,11.54,32.18,4.87,6.03,13.84,9,26.92,9h18.84c.51,0,.77.25.77.78v66.31c0,.53-.26.78-.77.78h-39.22c-31.02,0-55.5-14.02-73.44-42-7.43-13.35-11.15-28.13-11.15-44.36V35.55c0-16.22,7.81-27.47,23.46-33.75,3.84-1.03,7.3-1.56,10.37-1.56Z"/>
            <path class="cls-1" d="M2317.23,26.13h2.3c15.12,0,27.04,7.72,35.77,23.15,2.81,5.49,4.23,11.39,4.23,17.66v3.93c0,14.91-7.82,26.95-23.46,36.11-5.64,2.62-11.53,3.93-17.68,3.93-17.43,0-30.25-8.89-38.45-26.69-1.8-4.71-2.69-9.16-2.69-13.34v-3.53c0-17.78,9.23-30.73,27.68-38.85,4.61-1.57,8.71-2.36,12.3-2.36ZM2315.7,161.52h5.38c8.72,0,16.79,4.45,24.23,13.34,4.1,6.54,6.14,12.69,6.14,18.44v337.09c0,12.33-6.54,22.24-19.61,29.84-5.13,1.85-9.11,2.73-11.92,2.73h-3.08c-10.76,0-19.87-5.74-27.3-17.28-3.07-4.96-4.61-12.71-4.61-23.16V201.95c0-17.78,5.25-29.56,15.76-35.32,4.87-3.39,9.87-5.11,15-5.11Z"/>
            <path class="cls-1" d="M2594.57,160.75h6.54c40.49,0,79.84,14.13,118.04,42.38,17.43,14.91,29.61,27.73,36.53,38.46,26.15,36.62,39.2,76.78,39.2,120.49,0,52.86-18.83,99.94-56.5,141.26-20.25,19.61-39.48,33.23-57.67,40.81-27.43,12.55-53.96,18.83-79.59,18.83h-6.54c-41.01,0-80.49-14.26-118.42-42.77-14.1-11.79-25.12-23.18-33.06-34.14-28.2-37.14-42.29-78.62-42.29-124.41,0-49.69,16.92-94.56,50.76-134.59,17.43-18.05,29.99-29.04,37.67-32.96,34.34-22.22,69.45-33.35,105.35-33.35ZM2467.68,362.04v2.72c0,33.75,13.07,64.75,39.22,93.04,27.17,24.57,56.65,36.89,88.43,36.89h5c35.37,0,67.03-14.65,94.97-43.95,21.78-26.97,32.68-55.6,32.68-85.97v-2.73c0-37.42-13.45-69.7-40.37-96.91-14.86-13.6-30.12-23.15-45.76-28.65-14.87-4.97-28.33-7.46-40.37-7.46h-7.31c-21.54,0-43.58,6.81-66.13,20.4-7.69,4.71-17.3,13.07-28.84,25.1-13.59,17.53-22.05,33.08-25.37,46.7-4.09,11.26-6.15,24.88-6.15,40.82Z"/>
            <path class="cls-1" d="M2878.45,161.14c11.02,0,20.26,5.1,27.69,15.3,4.37,7.07,9.85,10.59,16.53,10.59,2.79,0,8.83-2.61,18.06-7.85,24.37-12.03,49.34-18.04,75-18.04,50.76,0,94.19,20.14,130.32,60.44,13.08,17.01,21.79,31.27,26.15,42.76,10.25,20.67,15.36,47.88,15.36,81.62v177.38c0,15.96-4.37,26.69-13.06,32.18-5.91,4.98-12.81,7.45-20.75,7.45-8.46,0-16.43-3.64-23.85-11-5.89-5.72-8.84-15.27-8.84-28.66v-175.81c0-25.12-3.2-43.84-9.63-56.12-12.31-26.68-32.42-45.52-60.36-56.5-12.31-3.93-23.83-5.88-34.59-5.88-30.26,0-56.39,12.04-78.44,36.11-12.04,14.13-19.98,30.74-23.85,49.83-1.53,6.81-2.3,17.67-2.3,32.57v175.81c0,15.96-4.36,26.69-13.08,32.18-5.64,4.98-12.55,7.45-20.73,7.45s-16.43-3.64-23.83-11.01c-5.92-5.71-8.88-15.27-8.88-28.65V200.77c0-13.6,3.21-23.28,9.61-29.04,7.19-7.06,15-10.59,23.47-10.59Z"/>
            <path class="cls-1" d="M3268.45,26.13h2.3c15.12,0,27.02,7.72,35.77,23.15,2.79,5.49,4.22,11.39,4.22,17.66v3.93c0,14.91-7.81,26.95-23.46,36.11-5.64,2.62-11.52,3.93-17.69,3.93-17.41,0-30.25-8.89-38.44-26.69-1.82-4.71-2.72-9.16-2.72-13.34v-3.53c0-17.78,9.24-30.73,27.69-38.85,4.62-1.57,8.72-2.36,12.33-2.36ZM3266.91,161.52h5.37c8.71,0,16.81,4.45,24.22,13.34,4.1,6.54,6.16,12.69,6.16,18.44v337.09c0,12.33-6.55,22.24-19.61,29.84-5.14,1.85-9.1,2.73-11.93,2.73h-3.08c-10.74,0-19.87-5.74-27.3-17.28-3.1-4.96-4.63-12.71-4.63-23.16V201.95c0-17.78,5.25-29.56,15.76-35.32,4.9-3.39,9.9-5.11,15.04-5.11Z"/>
            <path class="cls-1" d="M3466.17,160.75c16.65,0,33.29,4.98,49.99,14.91,23.59,16.49,35.35,33.09,35.35,49.83,0,11.78-5.73,21.46-17.3,29.05-5.39,2.89-11.05,4.32-16.94,4.32-8.73,0-17.06-4.18-25-12.55-6.91-11.51-15.64-17.27-26.15-17.27h-1.53c-11.51,0-20.26,6.14-26.15,18.44-1.55,4.19-2.31,7.98-2.31,11.38,0,12.04,6.81,21.84,20.37,29.43,49.73,33.76,77.54,52.97,83.45,57.68,9.22,8.13,15.74,14.8,19.61,20.02,16.65,23.27,24.98,47.61,24.98,73.01,0,41.07-16.28,74.56-48.83,100.47-21.79,15.68-45.62,23.57-71.5,23.57s-47.92-7.84-69.99-23.57c-14.36-11.26-24.98-23.02-31.91-35.33-6.92-12.03-10.39-21.97-10.39-29.83v-.78c0-9.94,4.77-18.85,14.24-26.69,6.42-3.93,12.55-5.88,18.46-5.88,12.32,0,22.04,5.76,29.22,17.27,3.56,7.32,6.91,13.1,10,17.28,11.79,13.11,25.35,19.61,40.76,19.61,17.18,0,31.54-7.18,43.06-21.56,6.91-10.21,10.37-21.16,10.37-32.96,0-21.16-11.42-38.44-34.2-51.77-47.94-32.71-73.95-50.62-78.04-53.76-24.09-20.69-36.16-46.58-36.16-77.72,0-24.32,9.08-46.69,27.3-67.09,20.01-19.69,43.08-29.5,69.22-29.5Z"/>
            <path class="cls-1" d="M3806.6,160.75c54.6,0,102.51,21.07,143.76,63.18,14.86,16.75,22.3,29.3,22.3,37.67,0,1.85.18,3.25.39,4.31,0,8.37-3.73,16.5-11.12,24.34-4.1,3.39-67.65,49.72-190.69,138.92,0,.25-10.37,7.98-31.17,23.15-3.1,3.65-4.61,7.32-4.61,11v2.34c0,4.96,2.69,9.29,8.06,12.94,20.74,10.72,40.37,16.1,58.81,16.1h7.71c29.5,0,57.44-11.23,83.84-33.72,14.36-14.88,22.79-25.66,25.37-32.18,4.36-7.06,8.57-16.9,12.69-29.45,2.57-12.79,6.16-21.7,10.76-26.66,7.69-7.08,15.51-10.62,23.46-10.62,15.33,0,26.01,7.45,31.91,22.38,1.28,3.13,1.92,6.67,1.92,10.61v1.15c-.25,10.24-5,26.85-14.22,49.87-5.39,12.55-14.24,26.95-26.57,43.17-12.82,14.88-24.06,25.89-33.83,32.96-16.67,12.3-31.4,20.76-44.2,25.49-24.59,10.22-48.19,15.29-70.74,15.29h-6.13c-39.73,0-77.94-12.96-114.56-38.85-17.71-13.87-32.18-28.91-43.46-45.14-8.45-12.78-15.12-24.55-19.98-35.33-11.28-28.52-16.93-55.44-16.93-80.84,0-48.13,15.63-91.96,46.91-131.47,14.61-15.69,25.26-25.76,31.91-30.21,36.34-26.95,75.81-40.41,118.39-40.41ZM3676.23,361.25c0,18.31,2.19,29.18,6.53,32.57,3.33,3.13,7.42,4.73,12.33,4.73,3.85,0,11.02-4.45,21.54-13.35,1.29-.53,52.92-37.92,154.96-112.24,3.86-3.64,5.76-7.84,5.76-12.55v-2.35c0-4.71-2.58-8.89-7.7-12.55-20.75-10.98-40.37-16.49-58.82-16.49h-7.7c-29.97,0-58.73,11.92-86.11,35.72-27.2,28.24-40.79,60.44-40.79,96.5Z"/>
          </g>
          <path class="cls-1" d="M1480.41,297.42c-.14-.76-.77-1.32-1.54-1.38-17.54-1.53-28.76-3.05-46.3-4.58l-18.93-45.71,29.6-35.87c.5-.59.56-1.44.11-2.08-6.31-9.1-14.52-19.5-25.06-30.1-10.93-10.99-21.68-19.5-31.01-25.97-.64-.44-1.48-.39-2.07.11-13.48,11.32-22.49,18.18-35.98,29.5l-45.71-18.93-4.44-46.29c-.07-.77-.62-1.41-1.39-1.55-10.89-1.97-24.06-3.52-39.01-3.56-15.5-.04-29.12,1.54-40.3,3.56-.76.14-1.32.77-1.38,1.54-1.53,17.54-3.05,28.76-4.58,46.3l-45.71,18.93-35.87-29.6c-.59-.5-1.44-.56-2.08-.11-9.1,6.31-19.5,14.52-30.1,25.06-10.99,10.93-19.5,21.68-25.97,31.01-.44.64-.39,1.48.11,2.07,11.32,13.48,18.18,22.49,29.5,35.98l-18.93,45.71-46.29,4.44c-.77.07-1.41.62-1.55,1.39-1.97,10.89-3.52,24.06-3.56,39.01-.04,15.5,1.54,29.12,3.56,40.3.14.76.77,1.32,1.54,1.38,17.54,1.53,28.76,3.05,46.3,4.58l18.93,45.71-29.6,35.87c-.5.59-.56,1.44-.11,2.08,6.31,9.1,14.52,19.5,25.06,30.1,10.93,10.99,21.68,19.5,31.01,25.97.64.44,1.48.39,2.07-.11,13.48-11.32,22.49-18.18,35.98-29.5l45.71,18.93,4.44,46.29c.07.77.62,1.41,1.39,1.55,10.89,1.97,24.06,3.52,39.01,3.56,15.5.04,29.12-1.54,40.3-3.56.76-.14,1.32-.77,1.38-1.54,1.53-17.54,3.05-28.76,4.58-46.3l45.71-18.93,35.87,29.6c.59.5,1.44.56,2.08.11,9.1-6.31,19.5-14.52,30.1-25.06,10.99-10.93,19.5-21.67,25.97-31.01.44-.64.39-1.48-.11-2.07-11.32-13.48-18.18-22.49-29.5-35.98l18.93-45.71,46.29-4.44c.77-.07,1.41-.62,1.55-1.39,1.97-10.89,3.52-24.06,3.56-39.01.04-15.5-1.54-29.12-3.56-40.3ZM1257.97,433.32c-53.18,0-96.3-43.11-96.3-96.3s43.11-96.3,96.3-96.3,96.3,43.11,96.3,96.3-43.11,96.3-96.3,96.3Z"/>
        </g>
        <g>
          <g>
            <path class="cls-1" d="M4318.74,234.68c-6.3-12.8-14.67-23.24-25.11-31.22-10.44-7.98-22.75-13.79-37.12-17.13-14.28-3.45-29.74-5.12-46.08-5.12-12.6,0-25.8,1.28-39.39,3.84-13.69,2.56-26,7.09-37.12,13.59-11.13,6.5-20.29,15.07-27.38,25.9-7.19,10.73-10.73,24.32-10.73,40.67s3.64,29.54,10.93,39.39c7.39,9.95,16.94,17.92,28.66,24.03,11.82,6.11,25.21,10.93,40.18,14.28,14.97,3.45,30.43,6.99,46.18,10.73,17.04,4.43,33.19,8.67,48.35,12.8,15.16,4.14,28.46,9.55,39.68,16.35,11.32,6.79,20.29,15.85,26.88,27.18,6.7,11.32,9.95,26.49,9.95,45.59,0,17.43-3.74,32.3-11.23,44.51-7.58,12.31-17.43,22.45-29.74,30.43-12.31,7.98-26.1,13.79-41.46,17.43-15.36,3.55-30.92,5.32-46.58,5.32-20.78,0-39.98-2.36-57.61-7.19-17.63-4.73-32.79-12.41-45.59-22.75-12.8-10.44-22.75-23.83-29.74-40.18-6.99-16.35-10.34-36.14-10.04-59.38h10.24c0,21.86,3.25,40.37,9.75,55.54,6.5,15.16,15.66,27.57,27.38,37.12,11.72,9.55,25.7,16.44,41.95,20.68,16.25,4.33,34.07,6.4,53.57,6.4,14.28,0,28.56-1.58,42.74-4.83,14.18-3.25,26.88-8.47,38.11-15.66,11.23-7.19,20.38-16.35,27.38-27.67,6.99-11.32,10.44-24.72,10.44-40.47,0-18.41-4.04-32.99-12.01-43.72-8.07-10.73-18.32-19.3-30.72-25.6-12.51-6.3-26.29-11.03-41.46-14.28-15.16-3.25-29.74-6.6-43.82-9.95-14.67-3.45-29.34-6.99-44.02-10.73-14.67-3.74-27.97-8.96-39.68-15.66-11.82-6.7-21.27-15.56-28.46-26.59-7.19-11.03-10.73-25.5-10.73-43.23s3.74-33.19,11.23-45.3c7.48-12.11,17.23-21.76,29.15-28.95,11.92-7.19,25.31-12.31,40.18-15.36,14.87-3.05,29.64-4.63,44.31-4.63,18.12,0,34.66,1.97,49.93,5.91,15.16,3.94,28.46,10.24,39.98,18.91,11.42,8.67,20.58,20.19,27.38,34.27,6.79,14.18,10.73,31.51,11.72,51.99h-10.24c-.49-18.81-3.94-34.56-10.34-47.37l.2.1Z"/>
            <path class="cls-1" d="M4217.61,563c-21.67,0-41.92-2.53-60.18-7.53-18.59-4.98-35.14-13.26-49.15-24.57-14.06-11.47-25.01-26.24-32.58-43.93-7.5-17.53-11.14-38.84-10.83-63.34.07-5.34,4.42-9.63,9.76-9.63h10.24c5.39,0,9.76,4.37,9.76,9.76,0,20.43,3.01,37.82,8.96,51.69,5.85,13.64,14.11,24.88,24.57,33.4,10.57,8.62,23.44,14.94,38.24,18.8,15.16,4.04,32.34,6.09,51.11,6.09,13.66,0,27.3-1.54,40.56-4.58,13.02-2.98,24.8-7.82,35.03-14.36,10.19-6.53,18.15-14.57,24.33-24.58,6.04-9.79,8.98-21.35,8.98-35.35,0-16.14-3.39-28.89-10.09-37.9-7.14-9.49-16.34-17.15-27.31-22.72-11.59-5.84-24.75-10.37-39.08-13.44-13.65-2.92-28.05-6.19-44.03-9.99-16.48-3.87-30.94-7.4-44.17-10.77-15.57-3.97-29.74-9.57-42.11-16.64-13.05-7.39-23.76-17.4-31.79-29.73-8.17-12.54-12.32-28.88-12.32-48.56s4.27-36.81,12.68-50.43c8.25-13.36,19.16-24.18,32.41-32.18,12.81-7.73,27.37-13.3,43.26-16.56,15.6-3.2,31.17-4.83,46.27-4.83,19.02,0,36.15,2.03,52.36,6.22,16.3,4.23,30.9,11.15,43.41,20.56,12.62,9.57,22.8,22.29,30.3,37.83,7.38,15.39,11.64,34.15,12.68,55.77.13,2.67-.84,5.27-2.68,7.2-1.84,1.93-4.39,3.03-7.06,3.03h-10.24c-5.29,0-9.62-4.22-9.76-9.5-.45-17.25-3.58-31.8-9.31-43.26-.24-.48-.43-.97-.59-1.46-5.54-10.75-12.77-19.58-21.52-26.26-9.5-7.26-20.74-12.43-33.41-15.38-.03,0-.05-.01-.08-.02-13.33-3.22-28.06-4.85-43.79-4.85-12.01,0-24.65,1.24-37.58,3.67-12.61,2.36-23.73,6.42-34.01,12.43-10.02,5.85-17.91,13.32-24.13,22.82-.02.03-.04.06-.06.09-6.03,9-9.08,20.86-9.08,35.24s3.03,25.5,9.02,33.58c6.51,8.76,14.79,15.69,25.32,21.18,11.21,5.79,23.94,10.31,37.8,13.41l4.75,1.09c13.48,3.1,27.41,6.31,41.56,9.67.07.02.13.03.2.05,15.89,4.13,32.76,8.55,48.46,12.83,16.18,4.41,30.37,10.27,42.17,17.41,12.66,7.6,22.86,17.91,30.26,30.61,7.58,12.81,11.27,29.35,11.27,50.51,0,19.21-4.26,35.9-12.66,49.61-8.37,13.58-19.38,24.85-32.75,33.52-13.21,8.56-28.19,14.86-44.51,18.74-16.06,3.71-32.47,5.58-48.83,5.58Z"/>
          </g>
          <g>
            <path class="cls-1" d="M4405.72,552.76V171.18h154.46c36.69,0,65.15,8.74,85.5,26.21,20.35,17.47,30.42,43.47,30.42,78,0,16.75-3.08,31.65-9.15,44.6-6.06,13.05-14.39,23.84-25.07,32.58-10.69,8.74-23.43,15.31-38.23,19.83-14.8,4.42-31.04,6.68-48.92,6.68h-138.32v173.67h-10.69,0ZM4560.18,368.39c15,0,28.88-2.06,41.72-6.17,12.85-4.11,23.94-10.17,33.4-18.19,9.45-8.02,16.85-17.78,22.2-29.08,5.34-11.41,7.91-24.56,7.91-39.57,0-30.21-8.63-53.44-25.9-69.47-17.26-16.03-43.78-24.05-79.34-24.05h-143.77v186.52h143.77Z"/>
            <path class="cls-1" d="M4416.41,562.94h-10.69c-5.62,0-10.18-4.56-10.18-10.18V171.18c0-5.62,4.56-10.18,10.18-10.18h154.46c38.98,0,69.98,9.64,92.14,28.66,22.54,19.35,33.97,48.2,33.97,85.73,0,18.14-3.4,34.6-10.11,48.92-6.64,14.3-16.02,26.47-27.85,36.14-11.6,9.48-25.63,16.78-41.7,21.69-15.85,4.73-33.29,7.12-51.89,7.12h-128.14v163.49c0,5.62-4.56,10.18-10.18,10.18ZM4426.59,358.21h133.59c13.84,0,26.84-1.91,38.62-5.68,11.45-3.66,21.51-9.13,29.92-16.26,8.24-6.99,14.83-15.62,19.58-25.67,4.66-9.95,6.94-21.48,6.94-35.21,0-27.19-7.62-48.06-22.64-62.01-15.24-14.15-39.6-21.33-72.41-21.33h-133.59v166.15Z"/>
          </g>
          <g>
            <path class="cls-1" d="M4707.74,362.3c0-25.89,3.64-50.49,11.02-73.72,7.28-23.23,18.11-43.5,32.18-60.92,14.17-17.42,31.79-31.2,52.76-41.44,20.96-10.24,45.08-15.35,72.44-15.35s51.48,5.12,72.44,15.35c20.96,10.24,38.58,24.02,52.66,41.44,14.17,17.42,24.9,37.7,32.18,60.92,7.38,23.23,11.02,47.74,11.02,73.72s-3.64,50.49-11.02,73.72c-7.28,23.23-18.11,43.5-32.18,60.92-14.17,17.42-31.79,31.1-52.66,41.24-20.96,10.04-45.18,15.06-72.44,15.06s-51.48-5.02-72.44-15.06c-20.96-10.04-38.58-23.82-52.76-41.24-14.17-17.42-24.9-37.7-32.18-60.92-7.38-23.23-11.02-47.74-11.02-73.72ZM4717.97,362.3c.3,26.28,4.13,50.49,11.52,72.64,7.28,22.24,17.72,41.24,31.2,57.28,13.48,16.04,29.92,28.54,49.41,37.6,19.49,9.05,41.44,13.58,66.04,13.58s46.55-4.53,66.04-13.58c19.49-9.05,35.92-21.55,49.41-37.6,13.48-16.04,23.92-35.14,31.2-57.28,7.38-22.15,11.22-46.46,11.52-72.74-.39-26.28-4.13-50.49-11.52-72.64-7.38-22.15-17.72-41.24-31.2-57.28-13.48-16.04-29.92-28.54-49.41-37.6-19.49-9.06-41.44-13.58-66.04-13.58s-46.55,4.53-66.04,13.58c-19.49,9.06-35.92,21.55-49.41,37.6-13.48,16.04-23.92,35.14-31.2,57.28-7.38,22.15-11.22,46.46-11.52,72.64v.1Z"/>
            <path class="cls-1" d="M4876.14,563c-28.67,0-54.46-5.39-76.65-16.02-22.19-10.62-41.06-25.39-56.11-43.88-14.91-18.32-26.32-39.91-33.93-64.16-7.61-23.94-11.47-49.73-11.47-76.64s3.86-52.7,11.48-76.67c7.53-24.01,18.93-45.58,33.89-64.1,14.96-18.39,33.82-33.21,56.06-44.07,22.21-10.84,48.02-16.34,76.72-16.34s54.51,5.5,76.72,16.34c22.31,10.89,41.14,25.72,55.96,44.07,14.89,18.3,26.3,39.88,33.9,64.14,7.61,23.94,11.47,49.73,11.47,76.64s-3.86,52.7-11.48,76.67c-7.53,24.01-18.93,45.58-33.89,64.1-14.9,18.31-33.73,33.07-55.98,43.88-22.24,10.65-48.03,16.04-76.7,16.04ZM4727.73,362.25c.29,25.12,3.99,48.54,11.01,69.6,6.8,20.77,16.69,38.96,29.41,54.09,12.47,14.84,27.97,26.62,46.05,35.03,18.1,8.41,38.94,12.67,61.93,12.67s43.83-4.26,61.93-12.67c18.09-8.4,33.58-20.19,46.05-35.03,12.67-15.08,22.56-33.26,29.4-54.05,7.03-21.08,10.73-44.51,11.03-69.67-.39-25.42-4.1-48.82-11.01-69.57-7-21-16.9-39.2-29.41-54.09-12.47-14.84-27.97-26.62-46.05-35.03-18.1-8.41-38.94-12.67-61.93-12.67s-43.83,4.26-61.93,12.67c-18.09,8.4-33.58,20.19-46.05,35.03-12.67,15.08-22.56,33.26-29.4,54.05-7.03,21.1-10.74,44.51-11.03,69.64Z"/>
          </g>
          <g>
            <path class="cls-1" d="M5097.75,552.76V171.18h156.1c39.87,0,69.06,7.91,87.56,23.74,18.5,15.83,28.16,40.49,28.88,73.99.62,25.69-6.06,46.96-20.35,63.82-14.28,16.96-34.74,28.47-61.45,34.43v1.03c16.03,2.16,28.98,5.96,38.95,11.51,9.97,5.55,17.68,12.74,22.92,21.58,5.34,8.94,8.94,19.42,10.69,31.45,1.75,12.13,2.67,25.9,2.67,41.21,0,5.34.21,12.02.51,20.04.31,8.02.93,15.93,1.64,23.74.72,7.81,1.54,15,2.67,21.38,1.03,6.37,2.47,10.89,4.32,13.36h-11.82c-1.75-3.91-3.19-9.15-4.32-15.72-1.03-6.58-1.85-13.67-2.36-21.17-.51-7.5-.93-15.11-1.03-22.71-.21-7.6-.21-14.49-.21-20.55,0-15.62-1.13-29.6-3.49-41.93-2.36-12.23-7.09-22.61-14.18-31.04-7.09-8.32-17.26-14.8-30.52-19.22-13.15-4.52-30.83-6.68-52.92-6.68h-143.77v179.02h-10.69l.21.31ZM5251.18,363.05c14.28,0,27.85-1.75,40.9-5.34,13.05-3.6,24.46-9.25,34.43-17.06,9.97-7.81,17.98-17.78,24.05-29.7,6.06-11.92,9.15-26.31,9.15-43.06-.31-27.03-8.53-48.2-24.66-63.3-16.03-15.11-42.13-22.71-78.62-22.71h-147.98v181.18h142.74Z"/>
            <path class="cls-1" d="M5087.56,550.41V171.18c0-5.62,4.56-10.18,10.18-10.18h156.1c42.18,0,73.87,8.81,94.18,26.19,20.74,17.75,31.66,45.17,32.44,81.51.68,28.23-6.98,52-22.76,70.62-9.33,11.07-21.06,20.05-35.07,26.86,3.47,1.39,6.71,2.93,9.75,4.62,11.62,6.47,20.61,14.97,26.72,25.28,6.04,10.1,10.08,21.95,12.01,35.18,1.84,12.8,2.78,27.15,2.78,42.67,0,5.71.26,13.14.51,19.65.26,6.8.76,13.95,1.61,23.2.8,8.67,1.61,15.19,2.56,20.53,0,.05.02.1.03.16,1.12,6.95,2.37,8.81,2.42,8.89,2.31,3.09,2.68,7.21.96,10.66-1.73,3.45-5.26,5.99-9.12,5.99h-11.82c-4.02,0-7.66-2.73-9.3-6.39-2.12-4.73-3.77-10.67-5.06-18.16,0-.05-.02-.1-.02-.15-1.13-7.2-1.95-14.62-2.46-22.05-.62-9.1-.96-16.47-1.05-23.2-.21-7.72-.21-14.64-.21-20.76,0-15.09-1.11-28.55-3.31-40.01-2.03-10.48-6.05-19.36-11.97-26.4-5.88-6.9-14.62-12.34-25.95-16.11-.03,0-.06-.02-.09-.03-11.83-4.07-28.52-6.13-49.61-6.13h-133.59v168.83c0,5.62-4.56,10.55-10.18,10.55h-7.99c-12.86,0-12.86-12.53-12.67-12.59ZM5118.62,352.86h132.56c13.55,0,26.04-1.63,38.19-4.98,11.81-3.25,21.9-8.25,30.85-15.26,8.69-6.81,15.84-15.65,21.25-26.3,5.33-10.47,8.03-23.39,8.04-38.38-.29-24.4-7.3-42.69-21.44-55.93-14.06-13.25-38.16-19.96-71.66-19.96h-137.8v160.81Z"/>
          </g>
          <g>
            <path class="cls-1" d="M5386.83,171.18h284.87v10.69h-137.3v370.88h-10.69V181.87h-136.78v-10.69h-.1Z"/>
            <path class="cls-1" d="M5534.4,562.94h-10.69c-5.62,0-10.18-4.56-10.18-10.18V192.06h-126.6c-5.62,0-10.18-4.56-10.18-10.18v-9.24c-.07-.47-.1-.96-.1-1.45,0-5.62,4.56-10.18,10.18-10.18h284.87c5.62,0,10.18,4.56,10.18,10.18v10.69c0,5.62-4.56,10.18-10.18,10.18h-127.11v360.7c0,5.62-4.56,10.18-10.18,10.18Z"/>
          </g>
        </g>
      </g>
    </g>
  </g>
</svg>